<?xml version="1.0" encoding="utf-8"?>
<!-- Generator: Adobe Illustrator 26.2.1, SVG Export Plug-In . SVG Version: 6.00 Build 0)  -->
<svg version="1.1" id="a" xmlns="http://www.w3.org/2000/svg" xmlns:xlink="http://www.w3.org/1999/xlink" x="0px" y="0px"
	 viewBox="0 0 456 456" style="enable-background:new 0 0 456 456;" xml:space="preserve">
<style type="text/css">
	.st0{fill:#82C052;}
	.st1{fill:none;stroke:#000000;stroke-width:12.6;stroke-linecap:round;stroke-miterlimit:10;}
	.st2{fill:none;stroke:#000000;stroke-width:12.6;stroke-linecap:round;stroke-linejoin:round;}
	.st3{fill:#B93E00;stroke:#000000;stroke-width:12.6;stroke-linecap:round;stroke-linejoin:round;}
	.st4{fill:#5C2C00;stroke:#000000;stroke-width:12.6;stroke-linecap:round;stroke-linejoin:round;}
</style>
<g>
	<path class="st0" d="M258.9,131.8c-25.1-37.5-69.4-21-72.6,14.6c-34.9,10.8-43.6,44.9-11,73.5c-16.7,41.1,39.8,56.1,55.8,32.8
		c38.9,23.8,53.2-0.4,56.7-26.5c11.8-7.6,20.4-42.2,4.8-51.9C299.6,164.9,302.4,131.8,258.9,131.8L258.9,131.8z"/>
	<g>
		<path class="st1" d="M292.7,177.8c8.6-9.1,5-44.1-28.4-46"/>
		<path class="st2" d="M263.6,149c-5.6-54.1-74.5-46.8-77.3-2.6c-53.3,18.5-30,80.2,7.3,77.6"/>
		<path class="st2" d="M282.4,168.7c22.8,12.4,21.3,47.6,5.4,57.6c8.4,24.2-29.8,54.4-55.5,24.8c-22.4,32.1-72.1,9.1-57-31.2"/>
	</g>
	<g>
		<circle class="st3" cx="193" cy="184.6" r="10.3"/>
		<circle class="st3" cx="233.9" cy="145.2" r="10"/>
		<circle class="st3" cx="272.4" cy="199.6" r="10"/>
		<circle class="st3" cx="224.6" cy="221.7" r="10"/>
	</g>
	<line class="st1" x1="231.6" y1="303.7" x2="232.1" y2="254.8"/>
	<polygon class="st4" points="210.9,318.9 253.4,318.9 250.1,345.5 214.6,345.5 	"/>
</g>
</svg>
