<svg id="eDpLh3FxQyZ1"
    xmlns="http://www.w3.org/2000/svg"
    xmlns:xlink="http://www.w3.org/1999/xlink" viewBox="0 0 314.4 491.15" shape-rendering="geometricPrecision" text-rendering="geometricPrecision">
    <style><![CDATA[
#fruit1 {animation: fruit1_c_o 2500ms linear infinite normal forwards}
@keyframes fruit1_c_o { 0% {fill: #b93e00;} 20% {fill: #e47f00;} 40% {fill: #b93e00;}}
#fruit2 {animation: fruit2_c_o 2500ms linear infinite normal forwards}
@keyframes fruit2_c_o { 20% {fill: #b93e00;} 40% {fill: #e47f00;} 60% {fill: #b93e00;}}
#fruit3 {animation: fruit3_c_o 2500ms linear infinite normal forwards}
@keyframes fruit3_c_o { 40% {fill: #b93e00;} 60% {fill: #e47f00;} 80% {fill: #b93e00;}}
#fruit4 {animation: fruit4_c_o 2500ms linear infinite normal forwards}
@keyframes fruit4_c_o { 60% {fill: #b93e00;} 80% {fill: #e47f00;} 100% {fill: #b93e00;}}]]></style>
    <path d="M209.45,45.46C167.66,-17.12,93.7,10.5,88.37,69.86c-58.12,18.03-72.6,74.78-18.3,122.51-27.84,68.49,66.27,93.52,92.93,54.69c64.85,39.71,88.71-.6,94.55-44.09c19.72-12.64,33.94-70.27,7.96-86.58c11.76-15.78,16.44-70.93-56.06-70.93Z" fill="#82c052"/>
    <g>
        <path d="M265.71,122.08c14.38-15.09,8.28-73.43-47.4-76.61" fill="none" stroke="#000" stroke-width="21" stroke-linecap="round" stroke-miterlimit="10"/>
        <path d="M217.27,74.17c-9.31-90.23-124.13-78.03-128.9-4.31-88.83,30.76-50,133.64,12.2,129.4" fill="none" stroke="#000" stroke-width="21" stroke-linecap="round" stroke-linejoin="round"/>
        <path d="M248.53,106.98c37.92,20.68,35.53,79.29,9.02,95.99c14.05,40.31-49.59,90.69-92.54,41.37-37.39,53.56-120.12,15.11-94.93-51.97" fill="none" stroke="#000" stroke-width="21" stroke-linecap="round" stroke-linejoin="round"/>
    </g>
    <g>
        <circle id="fruit1" r="17.11" transform="translate(99.51 133.5)" fill="#b93e00" stroke="#000" stroke-width="21" stroke-linecap="round" stroke-linejoin="round"/>
        <circle id="fruit2" r="16.71" transform="translate(167.66 67.74)" fill="#b93e00" stroke="#000" stroke-width="21" stroke-linecap="round" stroke-linejoin="round"/>
        <circle id="fruit3" r="16.71" transform="translate(231.83 158.43)" fill="#b93e00" stroke="#000" stroke-width="21" stroke-linecap="round" stroke-linejoin="round"/>
        <circle id="fruit4" r="16.71" transform="translate(152.28 195.28)" fill="#b93e00" stroke="#000" stroke-width="21" stroke-linecap="round" stroke-linejoin="round"/>
    </g>
    <line x1="163.94" y1="331.85" x2="164.74" y2="250.39" fill="none" stroke="#000" stroke-width="21" stroke-linecap="round" stroke-miterlimit="10"/>
    <polygon points="129.47,357.3 200.27,357.3 194.7,401.59 135.57,401.59 129.47,357.3" fill="#5c2c00" stroke="#000" stroke-width="21" stroke-linecap="round" stroke-linejoin="round"/>
</svg>