<svg xmlns="http://www.w3.org/2000/svg" viewBox="0 0 384 384"><defs><style>.cls-1{fill:#fff;}</style></defs><g id="temperature"><path d="M175.16,384c-7.65-1.67-15.57-2.56-22.89-5.16-38-13.44-61.51-40.19-67.28-80-5.89-40.56,9.46-73.23,42.94-97.08a6.11,6.11,0,0,0,3-5.75c-.15-13-.1-25.94,0-38.92,0-4.77,2.82-7.9,7-8.13a7.44,7.44,0,0,1,7.88,7.7c.13,15.72.08,31.44,0,47.16,0,3.83-2.46,6-5.54,7.8a83.86,83.86,0,0,0-34.47,38.76c-22.17,49.35,9,108.09,62.19,117.18,48,8.21,91.69-23.33,99-71.51,4.91-32.24-11.08-66.49-39.35-83.43-5.14-3.08-7.11-6.62-7.08-12.6.21-48.41.14-96.81.1-145.22,0-18.68-10.8-33.15-28-37.85C170,10.78,146.56,27.89,146,51.37c-.35,14-.1,27.95-.13,41.92,0,1.12,0,2.25-.05,3.36-.43,4.5-3.75,7.58-7.87,7.36s-7-3.26-7-7.73c-.09-10.48-.24-21,0-31.44.21-8.31-.08-16.87,1.77-24.88,5.64-24.41,29.37-41,54.49-39.1a52.4,52.4,0,0,1,48,46.18,83.74,83.74,0,0,1,.5,9q0,70-.05,140a6.28,6.28,0,0,0,3.23,6c33.71,22.6,50.43,64.27,41.69,103.59a99.77,99.77,0,0,1-81.23,77.06c-2.56.42-5.11.91-7.66,1.37Z"/><path d="M205.73,138.86c0,25.45,0,50.9-.07,76.34,0,2.54.78,3.64,3.14,4.58,30,12,47,41.12,43.42,73.87C249,323,224.8,348,194.65,353.14c-34.64,5.92-69-15.88-78.47-49.83-9.62-34.36,8.29-70.62,41.32-83.41,2.7-1.05,3.38-2.42,3.38-5.18q-.13-75.6-.07-151.19c0-8.2,2.19-10.35,10.48-10.36s16.72,0,25.08,0c6.56,0,9.34,2.76,9.34,9.34Q205.76,100.68,205.73,138.86ZM175.78,68.25v5.13q0,74.07,0,148.15c0,6.68-1.44,8.61-7.73,10.47-27.69,8.18-44.37,35.93-38.33,63.78A54.67,54.67,0,0,0,191,338.46c25.57-3.5,44.87-24.59,46.82-51.17,1.77-24.31-14.82-48-38.67-55.11-7.47-2.23-8.39-3.48-8.39-11.36q0-73.89,0-147.78V68.25Z"/><path d="M278.08,68.14c-4.35,0-8.7.06-13.05,0-4.74-.08-8.09-3.22-8.1-7.44s3.37-7.44,8.1-7.49q13.25-.14,26.48,0c4.88,0,8,3.1,8,7.48s-3.1,7.36-8,7.44C287,68.19,282.56,68.14,278.08,68.14Z"/><path d="M278,110.06c-4.35,0-8.71.06-13.06,0-4.69-.08-8.05-3.33-8-7.55a7.59,7.59,0,0,1,7.84-7.36q13.43-.16,26.85,0c4.84.06,7.94,3.19,7.88,7.59s-3.17,7.26-8.11,7.33C286.92,110.11,282.44,110.06,278,110.06Z"/><path d="M278.14,152c-4.48,0-8.95.07-13.43,0s-7.74-3.27-7.78-7.37a7.54,7.54,0,0,1,7.67-7.52q13.61-.19,27.22,0c4.62.06,7.66,3.17,7.68,7.4,0,4.44-3.07,7.36-7.93,7.52H278.14Z"/><path d="M278,193.89c-4.35,0-8.7.06-13.05,0-4.71-.08-8.07-3.29-8-7.51a7.57,7.57,0,0,1,7.8-7.4q13.61-.16,27.22,0a7.26,7.26,0,0,1,7.55,7.53c0,4.28-3.07,7.26-7.69,7.36S282.61,193.89,278,193.89Z"/><path d="M138.12,119a7.46,7.46,0,1,1,.16,14.92,7.46,7.46,0,0,1-.16-14.92Z"/><path class="cls-1" d="M175.78,68.25h15V73q0,73.89,0,147.78c0,7.88.92,9.13,8.39,11.36,23.85,7.14,40.44,30.8,38.67,55.11C235.87,313.87,216.57,335,191,338.46a54.67,54.67,0,0,1-61.28-42.68c-6-27.85,10.64-55.6,38.33-63.78,6.29-1.86,7.73-3.79,7.73-10.47q0-74.07,0-148.15Zm7.45,256.64c5.25-1.36,10.83-2,15.72-4.21,15-6.73,22.83-18.71,23.89-35.07.31-4.76-2.68-8.3-6.92-8.61s-7.47,2.74-8,7.55a39.71,39.71,0,0,1-1.06,6.62c-4.4,15.49-21.35,22.36-36,14.66-4.85-2.55-9.14-1.66-11.32,2.34s-.61,8.08,4.19,10.8C169.72,322.37,176.17,324,183.23,324.89ZM150.94,277a7.47,7.47,0,0,0,.16,14.94,7.47,7.47,0,1,0-.16-14.94Z"/><path d="M183.23,324.89c-7.06-.89-13.51-2.52-19.48-5.92-4.8-2.72-6.37-6.8-4.19-10.8s6.47-4.89,11.32-2.34c14.66,7.7,31.61.83,36-14.66a39.71,39.71,0,0,0,1.06-6.62c.5-4.81,3.67-7.87,8-7.55s7.23,3.85,6.92,8.61C221.78,302,213.91,314,199,320.68,194.06,322.87,188.48,323.53,183.23,324.89Z"/><path d="M150.94,277a7.47,7.47,0,1,1,.16,14.94,7.47,7.47,0,0,1-.16-14.94Z"/></g></svg>