<svg xmlns="http://www.w3.org/2000/svg" viewBox="0 0 384 384">
  <defs>
    <style>
      .cls-1 {
        fill: #040403;
      }

      .cls-2 {
        fill: #040404;
      }

      .cls-3 {
        fill: #cacaca;
      }

      .cls-4 {
        fill: #f7f086;
      }

      .cls-5 {
        fill: #545454;
      }

      .cls-6 {
        fill: #f5d72d;
      }

      .cls-7 {
        fill: #aaa;
      }

      .cls-8 {
        fill: #98c0f4;
      }
    </style>
  </defs>
  <g id="Layer_8" data-name="Layer 8">
    <g>
      <path class="cls-1" d="M144.76,305c3.44,0,4.08-1,4-4.11-.25-6.22-.08-12.47-.07-18.7,0-5.61,1.8-7.44,7.3-7.45s11-.1,16.46,0c2.13.06,2.7-.57,2.68-2.69-.12-9.1-.07-18.2-.05-27.31,0-6.1,1.7-8,7.75-7.81,2.95.08,3.78-.74,3.71-3.7-.18-7.85,0-7.85-8.06-7.85-10.4,0-11-.56-10.94-10.93.07-8.1-.73-16.25.37-24.29A24,24,0,0,1,193.41,169a24.3,24.3,0,0,1,23.13,23.89c.28,8.72.14,17.46.05,26.18-.05,4.33-2.18,6.25-6.58,6.31-2.87,0-5.74,0-8.61,0-.49,0-1,0-1.49,0-3.44-.26-2.51,2.57-2.11,3.83.8,2.53-2.78,6.38,2.14,7.63a10.45,10.45,0,0,0,2.24,0c4.85.16,6.82,2.06,6.86,6.9.07,9.35.09,18.7,0,28.05,0,2.21.4,3,2.81,2.95,5.73-.2,11.48-.11,17.21-.05,4.33,0,6.36,2.09,6.4,6.46.06,6.73.2,13.48-.07,20.2-.12,3.09,1,3.57,3.73,3.56m-45.68-124.5c-8-.76-14.32,4.54-14.65,12.68-.24,6.2,0,12.42-.11,18.63,0,2.07.77,2.48,2.61,2.44,5.59-.13,11.17-.12,16.76-.17,1.24,0,2.48,0,3.7.16,2.78.38,3.9-.46,3.75-3.54-.27-5.68,0-11.38-.11-17.07C205.16,186.24,200.29,181,193.41,180.47ZM213,286.08q-25.38-.06-50.76-.14c-1.69,0-2.43.33-2.38,2.22.13,4.85.09,9.71,0,14.56,0,1.52.31,2.22,2,2.21,17-.11,34.09-.15,51.13-.21,2.83,0,5.68,0,8.51.2,2.07.14,2.81-.52,2.74-2.67-.15-4.57-.16-9.15,0-13.72.08-2.21-.77-2.71-2.77-2.6C218.66,286.1,215.81,286,213,286.08Zm-15-24.43v-4.86c0-8.73,0-8.63-8.73-8.48-2.57.05-3.14,1-3.08,3.34.12,4.85,0,9.7,0,14.55,0,8.89,0,8.8,8.91,8.6,2.38-.05,3-.9,2.89-3.08C197.83,268.37,197.93,265,197.93,261.65Z"/>
      <path class="cls-2" d="M77.2,150.73c6.39.47,12,3.2,15.27,9.55,4.49,8.66,7.15,18,9.19,27.45.92,4.25-2.39,7.71-6.45,6.74-9.42-2.24-18.81-4.68-27.44-9.25a17.69,17.69,0,0,1-9-20.82A18.64,18.64,0,0,1,77.2,150.73Zm11,30.16a76.43,76.43,0,0,0-5.27-14.8,6.6,6.6,0,0,0-7.28-4,6.81,6.81,0,0,0-6.2,6,6.57,6.57,0,0,0,3.85,7.37A77.63,77.63,0,0,0,88.19,180.89Z"/>
      <path class="cls-2" d="M326,170.55a16.94,16.94,0,0,1-8.87,14.24c-8.89,4.9-18.66,7.41-28.44,9.71a5.27,5.27,0,0,1-6.32-6.24c2.15-10.22,4.8-20.35,10.16-29.43,3.95-6.69,12.55-9.58,20.26-7.33S326,161.16,326,170.55Zm-30.12,10.34a70.07,70.07,0,0,0,15.17-5.5,6.52,6.52,0,0,0,3.58-7.5,6.79,6.79,0,0,0-6.05-5.76,6.59,6.59,0,0,0-7.34,3.87A78.39,78.39,0,0,0,295.85,180.89Z"/>
      <path class="cls-2" d="M273.66,170.75A16.8,16.8,0,0,1,264.34,185c-8.72,4.67-18.23,7.11-27.76,9.43a5.21,5.21,0,0,1-6.49-6c2.12-10.6,4.81-21.11,10.66-30.37,3.93-6.22,12.55-8.76,19.9-6.52C268.39,153.92,273.65,161.05,273.66,170.75Zm-30.11,10.06a69.84,69.84,0,0,0,14.46-5c3.32-1.51,4.91-4.2,4.3-7.84a6.68,6.68,0,0,0-5.95-5.83c-3.65-.56-6.21,1.11-7.74,4.44A92.75,92.75,0,0,0,243.55,180.81Z"/>
      <path class="cls-2" d="M326,223.11a16.87,16.87,0,0,1-9.34,14.32c-8.73,4.67-18.24,7.11-27.76,9.42a5.21,5.21,0,0,1-6.47-6c2.13-10.6,4.81-21.12,10.68-30.37,4-6.33,12.8-8.82,20.24-6.36C321,206.6,326,213.53,326,223.11Zm-30,10.1a60.74,60.74,0,0,0,15.57-5.74c2.82-1.57,3.7-4.35,3.06-7.39a6.74,6.74,0,0,0-5.83-5.55,6.44,6.44,0,0,0-7.24,3.38A65.58,65.58,0,0,0,296,233.21Z"/>
      <path class="cls-2" d="M58,223.33c0-10.09,5.67-17.48,13.46-19.56a17.9,17.9,0,0,1,20.9,9c4.49,8.51,7.06,17.74,9.11,27.08,1,4.71-2.36,8-6.86,7a140.26,140.26,0,0,1-25.09-8.14C62.18,235.28,58.22,229.64,58,223.33Zm30.11,9.91a81,81,0,0,0-5.37-14.85,6.59,6.59,0,0,0-7.34-3.89,6.71,6.71,0,0,0-6,5.76,6.62,6.62,0,0,0,3.88,7.7A75.91,75.91,0,0,0,88.15,233.24Z"/>
      <path class="cls-2" d="M110.42,170.92c0-10.14,5.73-17.58,13.72-19.57,8.35-2.08,16.58,1.35,20.59,8.91,4.51,8.5,7.08,17.73,9.14,27.07,1.13,5.07-2.34,8.08-7.45,6.87A135.65,135.65,0,0,1,122,186.29C114.65,183,110.61,177.39,110.42,170.92Zm30.05,10a81.61,81.61,0,0,0-5.08-14.41c-1.48-3.2-4-4.79-7.44-4.35a6.7,6.7,0,0,0-6.2,6c-.55,3.66,1.13,6.25,4.45,7.75A85.5,85.5,0,0,0,140.47,180.87Z"/>
      <path class="cls-1" d="M134.69,207.26c5.3.2,10.77,3,14.13,9.35,4.64,8.74,7.13,18.23,9.38,27.77a5.19,5.19,0,0,1-6.09,6.42c-10.58-2.17-21.11-4.85-30.35-10.71-6.23-3.94-8.73-12.59-6.44-19.92C117.74,212.41,124.81,207.25,134.69,207.26ZM143.77,237l.86-.09-.41-.42c-.77-4.71-2.63-9.05-4.56-13.34-1.7-3.76-4.36-5.24-8-4.58a6.65,6.65,0,0,0-5.76,6c-.52,3.67,1.21,6.19,4.56,7.69A77.6,77.6,0,0,0,143.77,237Z"/>
      <path class="cls-1" d="M249.19,207.27c10.25-.07,17.63,5.45,19.77,13.47a18,18,0,0,1-9,20.89c-8.52,4.48-17.77,7-27.09,9.11-4.49,1-8-2.31-7-6.58,2.16-9.18,4.65-18.29,8.9-26.78C238.11,210.77,243.58,207.48,249.19,207.27Zm-9.79,30.18c5.49-1.67,10.56-3.16,15.25-5.67a6.47,6.47,0,0,0,3.48-7.52,6.56,6.56,0,0,0-5.66-5.64c-3.24-.54-5.95.45-7.52,3.51A75.34,75.34,0,0,0,239.4,237.45Z"/>
      <path class="cls-3" d="M213,304.72c-17,.06-34.09.1-51.13.21-1.72,0-2.06-.69-2-2.21.07-4.85.11-9.71,0-14.56-.05-1.89.69-2.23,2.38-2.22q25.38.12,50.76.14Q213,295.4,213,304.72Z"/>
      <path class="cls-4" d="M198,214.05c-5.59,0-11.17,0-16.76.17-1.84,0-2.65-.37-2.61-2.44.14-6.21-.13-12.43.11-18.63.33-8.14,6.62-13.44,14.65-12.68a25.54,25.54,0,0,1,4.69,17.17C197.78,203.09,198,208.58,198,214.05Z"/>
      <path class="cls-5" d="M197.93,261.65c0,3.35-.1,6.72,0,10.07.09,2.18-.51,3-2.89,3.08-8.92.2-8.91.29-8.91-8.6,0-4.85.08-9.7,0-14.55-.06-2.3.51-3.29,3.08-3.34,8.73-.15,8.73-.25,8.73,8.48Z"/>
      <path class="cls-6" d="M198,214.05c0-5.47-.24-11,.08-16.41a25.54,25.54,0,0,0-4.69-17.17c6.88.54,11.75,5.77,12,13.13.14,5.69-.16,11.39.11,17.07.15,3.08-1,3.92-3.75,3.54C200.5,214.05,199.26,214.1,198,214.05Z"/>
      <path class="cls-7" d="M213,304.72q0-9.33,0-18.64c2.84,0,5.69,0,8.52-.15,2-.11,2.85.39,2.77,2.6-.16,4.57-.15,9.15,0,13.72.07,2.15-.67,2.81-2.74,2.67C218.69,304.73,215.84,304.77,213,304.72Z"/>
      <path class="cls-8" d="M88.19,180.89a77.63,77.63,0,0,1-14.9-5.37,6.57,6.57,0,0,1-3.85-7.37,6.81,6.81,0,0,1,6.2-6,6.6,6.6,0,0,1,7.28,4A76.43,76.43,0,0,1,88.19,180.89Z"/>
      <path class="cls-8" d="M295.85,180.89A78.39,78.39,0,0,1,301.21,166a6.59,6.59,0,0,1,7.34-3.87,6.79,6.79,0,0,1,6.05,5.76,6.52,6.52,0,0,1-3.58,7.5A70.07,70.07,0,0,1,295.85,180.89Z"/>
      <path class="cls-8" d="M243.55,180.81a92.75,92.75,0,0,1,5.07-14.22c1.53-3.33,4.09-5,7.74-4.44a6.68,6.68,0,0,1,5.95,5.83c.61,3.64-1,6.33-4.3,7.84A69.84,69.84,0,0,1,243.55,180.81Z"/>
      <path class="cls-8" d="M296,233.21a65.58,65.58,0,0,1,5.56-15.3,6.44,6.44,0,0,1,7.24-3.38,6.74,6.74,0,0,1,5.83,5.55c.64,3-.24,5.82-3.06,7.39A60.74,60.74,0,0,1,296,233.21Z"/>
      <path class="cls-8" d="M88.15,233.24A75.91,75.91,0,0,1,73.29,228a6.62,6.62,0,0,1-3.88-7.7,6.71,6.71,0,0,1,6-5.76,6.59,6.59,0,0,1,7.34,3.89A81,81,0,0,1,88.15,233.24Z"/>
      <path class="cls-8" d="M140.47,180.87a85.5,85.5,0,0,1-14.27-5c-3.32-1.5-5-4.09-4.45-7.75a6.7,6.7,0,0,1,6.2-6c3.45-.44,6,1.15,7.44,4.35A81.61,81.61,0,0,1,140.47,180.87Z"/>
      <path class="cls-8" d="M143.77,237a77.6,77.6,0,0,1-13.33-4.71c-3.35-1.5-5.08-4-4.56-7.69a6.65,6.65,0,0,1,5.76-6c3.66-.66,6.32.82,8,4.58,1.93,4.29,3.79,8.63,4.56,13.34A3.1,3.1,0,0,0,143.77,237Z"/>
      <path class="cls-8" d="M144.22,236.52l.41.42-.86.09A3.1,3.1,0,0,1,144.22,236.52Z"/>
      <path class="cls-8" d="M239.4,237.45A75.34,75.34,0,0,1,245,222.13c1.57-3.06,4.28-4,7.52-3.51a6.56,6.56,0,0,1,5.66,5.64,6.47,6.47,0,0,1-3.48,7.52C250,234.29,244.89,235.78,239.4,237.45Z"/>
    </g>
  </g>
</svg>
