<svg xmlns="http://www.w3.org/2000/svg" viewBox="0 0 384 384"><g id="luminosity"><path d="M.34,189.74c2.19-4.05,5.54-5.46,10.15-5.32,8.69.28,17.41.05,26.12.09,5.3,0,8.74,3.14,8.63,7.66s-3.48,7.27-8.63,7.29c-8.71,0-17.42-.18-26.12.09-4.6.15-7.95-1.27-10.15-5.32Z"/><path d="M189.77,383.63c-4-2.2-5.47-5.54-5.32-10.15.28-8.69.05-17.41.09-26.11,0-5.31,3.13-8.75,7.66-8.63s7.27,3.46,7.29,8.62c0,8.71-.18,17.42.09,26.12.15,4.61-1.29,7.94-5.32,10.15Z"/><path d="M99.58,99.89C143.74,56.14,212.72,49.31,264.3,83.72c60.53,40.39,76.13,123.09,34.48,182.77A130.05,130.05,0,0,1,128.05,305.6l-.33-.17c-5.63-3.19-7.4-7.23-5-11.41s6.56-4.7,12.34-1.69c44.28,23.14,87.22,20.6,127.24-9.12,51.78-38.46,59.94-115.11,18.57-164.39C242.78,73.45,179.36,63.6,129.26,95.27,78.44,127.39,61.4,196.42,91.44,248.45a39.42,39.42,0,0,1,1.91,3.64A7.39,7.39,0,0,1,90.11,262a7.3,7.3,0,0,1-9.77-2.85,107.34,107.34,0,0,1-7.1-13.56C53.57,198,58.68,153.32,89.33,111.78,92.43,107.58,96.15,103.84,99.58,99.89Z"/><path d="M292.33,188.58v2.24c0,5.13-2.92,8.53-7.32,8.62s-7.14-3.28-7.73-8.3c-.93-8-1.45-16.23-3.77-23.87-8.13-26.7-25.69-45-51.63-55.27a27.38,27.38,0,0,1-3.78-1.58,7.35,7.35,0,0,1,4.27-13.68,14.14,14.14,0,0,1,3.6.88C264.16,110.92,291.4,148.28,292.33,188.58Z"/><path d="M91.3,83.37c-1.78,2.2-3,5.08-5.12,5.95s-6,.79-7.52-.6c-7.91-7.23-15.45-14.87-22.82-22.66-2.72-2.87-2-7.1.93-9.74a7.1,7.1,0,0,1,10.14.09c4.55,4.26,8.88,8.76,13.29,13.16,2.56,2.56,5.25,5,7.61,7.74C89.12,78.82,89.87,80.83,91.3,83.37Z"/><path d="M300.51,91.29c-2.17-1.81-4.63-3.14-6-5.19-1.79-2.72-1.13-5.86,1.16-8.26,3.87-4.06,7.89-8,11.86-12,3-3,5.94-6.06,9-9,3.61-3.41,7.89-3.48,11-.35s3,7.39-.5,11c-6.71,6.87-13.5,13.67-20.41,20.33C305.2,89.24,303.08,89.88,300.51,91.29Z"/><path d="M90.35,302.35A20.49,20.49,0,0,1,87.51,307C81,313.72,74.37,320.31,67.7,326.86c-3.72,3.65-8.07,3.75-11.25.49s-2.93-7.39.58-11c6.74-6.85,13.57-13.6,20.38-20.37A7.26,7.26,0,0,1,86,294.3C88.89,295.56,90.33,297.93,90.35,302.35Z"/><path d="M293,300.36c1.51-1.9,2.74-4.8,4.82-5.68s6-.85,7.53.54c7.91,7.21,15.45,14.86,22.84,22.63,2.71,2.85,2,7.14-.83,9.78s-6.77,3.05-9.54.41c-7.67-7.32-15.1-14.88-22.5-22.47C294.26,304.51,294,302.72,293,300.36Z"/><path d="M184.53,22.48c0-4.72-.07-9.45,0-14.17s3.31-8,7.59-7.94,7.28,3.27,7.33,7.82q.14,14.55,0,29.11c0,4.73-3.32,8-7.59,7.93s-7.23-3.27-7.32-7.82C184.46,32.43,184.53,27.46,184.53,22.48Z"/><path d="M361.54,184.51c4.73,0,9.46-.08,14.18,0s8,3.31,7.94,7.59c-.08,4.13-3.28,7.27-7.83,7.32q-14.55.13-29.11,0c-4.74,0-8-3.3-7.93-7.59.07-4.14,3.27-7.22,7.83-7.32C351.59,184.43,356.57,184.51,361.54,184.51Z"/><path d="M199.71,99.11a7.38,7.38,0,0,1-7.59,7.52A7.47,7.47,0,1,1,192,91.69,7.37,7.37,0,0,1,199.71,99.11Z"/><path d="M99.85,284.15a7.46,7.46,0,1,1,10.42.14A7.55,7.55,0,0,1,99.85,284.15Z"/></g></svg>