<svg xmlns="http://www.w3.org/2000/svg" viewBox="0 0 384 384"><defs><style>.cls-1{fill:#fff;}</style></defs><g id="moisture"><path d="M289.77,384c-6-1.64-12.15-2.73-17.86-5A66.88,66.88,0,0,1,243.72,276.2c15.4-20.09,31.14-39.92,46.76-59.84,4-5.12,9.16-5.25,13.12-.17,15.94,20.46,32.28,40.63,47.55,61.59,29.75,40.82,4.86,98.58-45.08,105.55A12.47,12.47,0,0,0,304,384Zm7.28-151.86c-14.67,18.85-29.52,36.71-42.94,55.58-11.77,16.55-12.66,35-3.24,53.11,9.33,17.92,24.69,27.66,44.91,28,21.18.4,37.37-9.29,47.14-28.05,9.85-18.94,7.92-37.66-4.41-55-6.64-9.34-14-18.2-21-27.27C310.82,249.9,304.12,241.25,297.05,232.14Z"/><path d="M88.09,60.77c-14,18-27.92,35.3-41.21,53.07a57.88,57.88,0,0,0-8.8,17.55c-8.73,28.75,9.75,58.93,39.46,65.19,29,6.13,57.89-14.37,61.85-43.81a53.85,53.85,0,0,0-5.89-32.57c-1.1-2.16-2-5.29-1.22-7.32s3.46-4.23,5.75-5c3.45-1.12,6.18,1,7.95,4.12a65.89,65.89,0,0,1,8.8,37.69c-2.11,30.78-23.86,55.39-54.16,61.6-37.27,7.65-74.46-19.22-79.06-57q-3.42-28.19,13.92-50.52Q58.31,74.37,81.36,45.12c4.28-5.45,9.27-5.43,13.6.05S103.72,56.37,108,62c3.1,4.07,2.77,8.6-.7,11.29s-7.87,1.9-11.1-2.12C93.58,67.91,91,64.55,88.09,60.77Z"/><path d="M268.74,73.51a46.22,46.22,0,0,1,9.52-28.57Q294,24.47,310,4.23c3.84-4.87,9-4.85,12.89.09,10.75,13.77,21.62,27.45,32,41.48a47,47,0,0,1-.12,55.6c-12.48,17-33.93,23.93-53.53,17.32A47.84,47.84,0,0,1,268.74,73.51Zm47.75-53.24c-8.4,10.73-16.4,20.92-24.38,31.13-1.15,1.47-2.29,3-3.29,4.54A32.61,32.61,0,0,0,337.36,98.4c12.27-10.35,15.63-28.69,6.58-41.93C335.52,44.14,325.93,32.62,316.49,20.27Z"/><path d="M223.42,218.21c-19-.81-33.47-9.1-42.18-25.91-8.79-17-7.56-34,3.55-49.46C195,128.57,206.26,115,217.14,101.18c3.75-4.75,9-4.8,12.65-.08,10.91,14,22.15,27.67,32.38,42.1,10.83,15.28,12,32.12,3.47,48.83C256.93,209,242.38,217.43,223.42,218.21Zm0-101.07c-9.54,12.45-19.48,24.16-28,36.84-9,13.39-5.2,31.48,7.27,41.76a32.61,32.61,0,0,0,41.92-.57c12.36-10.88,15.33-28.94,6-42.28C242.21,140.76,232.76,129.31,223.42,117.14Z"/><path d="M195.66,306.57c-.14,26.68-20.19,47.68-45,48.9a47.76,47.76,0,0,1-49.71-42.2c-1.39-12.18,1.33-23.43,8.66-33.19C120.12,266,131.09,252.27,142,238.46c3.75-4.74,8.89-4.73,12.62,0,10.84,13.85,21.7,27.69,32.25,41.75A43.44,43.44,0,0,1,195.66,306.57Zm-47.53-52.1c-9.77,12.87-19.95,24.74-28.35,37.76-8.74,13.54-4.32,31.55,8.52,41.5a32.43,32.43,0,0,0,41.88-1.89c11.87-11.09,14.27-29.13,4.91-42.21C166.68,277.89,157.53,266.67,148.13,254.47Z"/><path d="M121.26,98.66a7.49,7.49,0,0,1-7.5-7.29,7.36,7.36,0,0,1,7.12-7.61,7.55,7.55,0,0,1,7.77,7.42A7.67,7.67,0,0,1,121.26,98.66Z"/><path class="cls-1" d="M297.05,232.14c7.07,9.11,13.77,17.76,20.47,26.41,7,9.07,14.35,17.93,21,27.27,12.33,17.34,14.26,36.06,4.41,55-9.77,18.76-26,28.45-47.14,28.05-20.22-.38-35.58-10.12-44.91-28-9.42-18.1-8.53-36.56,3.24-53.11C267.53,268.85,282.38,251,297.05,232.14Z"/><path class="cls-1" d="M316.49,20.27c9.44,12.35,19,23.87,27.45,36.2,9.05,13.24,5.69,31.58-6.58,41.93a32.61,32.61,0,0,1-48.54-42.46c1-1.57,2.14-3.07,3.29-4.54C300.09,41.19,308.09,31,316.49,20.27Z"/><path class="cls-1" d="M223.42,117.14c9.34,12.17,18.79,23.62,27.26,35.75,9.3,13.34,6.33,31.4-6,42.28a32.61,32.61,0,0,1-41.92.57c-12.47-10.28-16.22-28.37-7.27-41.76C203.94,141.3,213.88,129.59,223.42,117.14Z"/><path class="cls-1" d="M148.13,254.47c9.4,12.2,18.55,23.42,27,35.16,9.36,13.08,7,31.12-4.91,42.21a32.43,32.43,0,0,1-41.88,1.89c-12.84-10-17.26-28-8.52-41.5C128.18,279.21,138.36,267.34,148.13,254.47Z"/></g></svg>