<svg xmlns="http://www.w3.org/2000/svg" viewBox="0 0 384 384"><defs><style>.cls-1{fill:#fdfdfd;}.cls-2{fill:#d6e2e2;}.cls-3{fill:#fbd48c;}.cls-4{fill:#fed78d;}.cls-5{fill:#c7f0f6;}.cls-6{fill:#030303;}.cls-7{fill:#b1c8cb;}.cls-8{fill:#fcd68c;}.cls-9{fill:#b3c9cc;}.cls-10{fill:#050504;}</style></defs><g id="temperature"><path class="cls-1" d="M0,232.11c.88,3.54,1.63,7.11,2.66,10.59,10.74,36.32,34.67,57.92,72,64.5,1.23.22,2.46.4,3.68.61a3.73,3.73,0,0,1,.54.21v32h-4c-21.43,0-42.87.09-64.31-.07-4.63,0-8.22,1.1-10.58,5.22Z"/><path class="cls-2" d="M167.55,149.88v143c-1.16.07-2.23.2-3.3.2-25.32,0-50.65.08-76,0-35.12-.13-63.3-22-71.35-55.12C6.8,196.2,36.6,154.36,79.36,150.37q4.85-.45,9.71-.47,37.05,0,74.1,0Zm-35.79,26.76H121.67c-4.3.18-7.46,3.12-7.66,7.12a7.39,7.39,0,0,0,7,7.73c6.84.26,13.7.25,20.54,0a7.35,7.35,0,0,0,7.09-7.68,7.44,7.44,0,0,0-7.59-7.16C138,176.57,134.87,176.65,131.76,176.64Zm-.42,37.44c-3.36,0-6.73-.12-10.08,0a7.45,7.45,0,0,0-7.25,7.13,7.31,7.31,0,0,0,6.72,7.65c7.08.28,14.2.29,21.28,0a7.23,7.23,0,0,0,6.67-7.67,7.37,7.37,0,0,0-7.25-7.1C138.07,214,134.7,214.08,131.34,214.08Zm.16,37.43v0h-9.72c-4.49.2-7.75,3.31-7.78,7.4a7.47,7.47,0,0,0,7.32,7.51c6.72.18,13.45.19,20.17,0a7.43,7.43,0,0,0-.28-14.85C138,251.42,134.73,251.51,131.5,251.51Z"/><path class="cls-2" d="M209,195.49c5.92-1.13,7.84-3.35,7.86-9.39,0-10.61,0-21.21,0-31.81v-4.21h97.07v142.8H216.85v-3.82c0-10.85,0-21.7,0-32.55,0-5.74-2.19-8.09-7.85-8.94q0-9.21,0-18.41c5.32-1.12,7.91-3.72,7.82-7.85s-2.88-6.66-7.82-7.37Z"/><path class="cls-3" d="M209,229.16q0,9.19,0,18.41c-5.29,1.26-7.08,3.39-7.09,8.86,0,16.09,0,32.18,0,48.26v4.36h-19V133.8h19v4.11q0,24.14,0,48.26c0,5.81,1.46,7.64,7.09,9.32v18.45c-4.74,1.14-7,3.48-7.05,7.37S203.83,227.53,209,229.16Z"/><path class="cls-4" d="M329.39,254.31V188.73h38.75v65.58Z"/><path class="cls-5" d="M273.83,95.44h-19c.51-10.55-1.71-21.67,0-31.86,2.16-12.85,15.18-19.95,30.46-20.13,23.19-.28,46.39-.12,69.59-.14h13.3V59H355.84l-60.61,0c-2.12,0-4.25,0-6.36.11-8.93.52-14.61,6-15,15C273.59,81.07,273.83,88.05,273.83,95.44Z"/><path class="cls-6" d="M0,210.4c.6-2.19,1.32-4.35,1.78-6.57,7.29-34.91,36.51-64.46,77.39-68.65,0-2.86,0-5.79,0-8.73C79.24,110,89.63,99.57,106,99.54c5.86,0,11.73-.07,17.59,0a25.08,25.08,0,0,1,24.65,24.59c.07,3.47,0,6.94,0,10.56h18.29c1.5-3.85,2.35-7.53,4.25-10.54,2.66-4.19,7.17-5.55,12-5.56h16.09c12.15,0,16.61,3.93,18.19,16.29h13.71V113.1c0-2.5,0-5,0-7.49,0-7.28,1.85-9.37,9.45-10.27,0-1.37,0-2.81,0-4.25.33-9.46-.33-19.09,1.22-28.34,3.1-18.4,16.86-30.68,35.91-33.5a89.42,89.42,0,0,1,12.67-.88c27.82-.08,55.64,0,83.46,0,7.46,0,9.79,2.35,9.79,9.86q0,13.11,0,26.21c0,6.85-2.64,9.51-9.51,9.52l-79,.1H289V95.28a19.28,19.28,0,0,1,4.2.78c3.34,1.38,4.84,4,4.82,7.68,0,10.22,0,20.44,0,31.16h20.16c8.85,0,11.06,2.19,11.06,11v27.67h3.91c13.73,0,27.45,0,41.17,0,6.45,0,9,2.64,9,9.12q0,38.75,0,77.49c0,6.69-2.63,9.34-9.25,9.35-14.83,0-29.65,0-44.87,0v27.79c0,8.58-2.21,10.76-10.9,10.76H217.15c-.18,1.33-.33,2.41-.48,3.49-1,7.61-6.5,12.59-14.15,12.72-6,.1-12,0-18,0-11.22,0-16.18-4.57-17.08-16h-24.9V340h4.25q113,0,226.06,0a19.37,19.37,0,0,1,5.17.51,7.21,7.21,0,0,1,5.24,7.67,7.37,7.37,0,0,1-6.85,6.73c-.87.08-1.74,0-2.62,0q-182.08,0-364.17.07c-4.49,0-7.7-1.34-9.65-5.41v-4.49c2.36-4.12,6-5.26,10.58-5.22,21.44.16,42.88.07,64.31.07h4V308a3.73,3.73,0,0,0-.54-.21c-1.22-.21-2.45-.39-3.68-.61-37.36-6.58-61.29-28.18-72-64.5-1-3.48-1.78-7-2.66-10.59Zm209-14.91c-5.63-1.68-7.08-3.51-7.09-9.32q0-24.13,0-48.26V133.8h-19V309.05h19v-4.36c0-16.08,0-32.17,0-48.26,0-5.47,1.8-7.6,7.09-8.86,5.66.85,7.81,3.2,7.85,8.94.06,10.85,0,21.7,0,32.55v3.82h97.07V150.08H216.85v4.21c0,10.6,0,21.2,0,31.81C216.81,192.14,214.89,194.36,209,195.49Zm-41.42-45.61h-4.38q-37,0-74.1,0-4.86,0-9.71.47C36.6,154.36,6.8,196.2,16.93,238c8.05,33.15,36.23,55,71.35,55.12,25.32.09,50.65,0,76,0,1.07,0,2.14-.13,3.3-.2ZM329.39,254.31h38.75V188.73H329.39ZM273.83,95.44c0-7.39-.24-14.37.05-21.32.38-9,6.06-14.45,15-15C291,59,293.11,59,295.23,59l60.61,0h12.29V43.31h-13.3c-23.2,0-46.4-.14-69.59.14-15.28.18-27.83,9.86-30,22.72-1.71,10.18-.47,23.5-.47,29.27ZM127.15,339.9V308.38H94.35V339.9ZM246,134.67h36.82V110.81H246Zm-112.71,0c0-3.7.13-7.06,0-10.41a9.9,9.9,0,0,0-9.52-9.7c-6.73-.2-13.48-.2-20.21,0A9.48,9.48,0,0,0,94.38,123c-.33,3.8-.07,7.66-.07,11.68Z"/><path class="cls-7" d="M127.15,339.9H94.35V308.38h32.8Z"/><path class="cls-8" d="M246,134.67V110.81h36.82v23.86Z"/><path class="cls-9" d="M133.25,134.71H94.31c0-4-.26-7.88.07-11.68a9.48,9.48,0,0,1,9.11-8.41c6.73-.22,13.48-.22,20.21,0a9.9,9.9,0,0,1,9.52,9.7C133.38,127.65,133.25,131,133.25,134.71Z"/><path class="cls-6" d="M131.76,176.64c3.11,0,6.23-.07,9.34,0a7.44,7.44,0,0,1,7.59,7.16,7.35,7.35,0,0,1-7.09,7.68c-6.84.24-13.7.25-20.54,0a7.39,7.39,0,0,1-7-7.73c.2-4,3.36-6.94,7.66-7.12h10.09Z"/><path class="cls-6" d="M131.34,214.08c3.36,0,6.73-.12,10.09,0a7.37,7.37,0,0,1,7.25,7.1,7.23,7.23,0,0,1-6.67,7.67c-7.08.3-14.2.29-21.28,0a7.31,7.31,0,0,1-6.72-7.65,7.45,7.45,0,0,1,7.25-7.13C124.61,214,128,214.08,131.34,214.08Z"/><path class="cls-6" d="M131.5,251.51c3.23,0,6.47-.09,9.71,0a7.43,7.43,0,0,1,.28,14.85c-6.72.21-13.45.2-20.17,0A7.47,7.47,0,0,1,114,258.9c0-4.09,3.29-7.2,7.78-7.4h9.72Z"/><path class="cls-10" d="M209,229.16c-5.14-1.63-7.13-3.84-7.05-7.85s2.31-6.23,7.05-7.37c4.94.71,7.72,3.34,7.82,7.37S214.29,228,209,229.16Z"/></g></svg>