<svg xmlns="http://www.w3.org/2000/svg" viewBox="0 0 384 384"><defs><style>.cls-1{fill:#fff;}</style></defs><g id="temperature"><path d="M384,349.56c-2.11,4.18-5.52,5.41-10.12,5.41q-181.54-.14-363.09-.08a31.35,31.35,0,0,1-3.36-.07,7.37,7.37,0,0,1-6.68-6.51,7.18,7.18,0,0,1,4.76-7.65A17.83,17.83,0,0,1,11,340q32-.07,64,0h4.43V307.78c-26.64-3.18-48.24-15.41-63.68-37.71A83.62,83.62,0,0,1,.83,216.31c2.45-42.28,35.55-77.22,79-81.4,0-3,0-6.1,0-9.18C80,110,90.53,99.5,106.23,99.44c6,0,12-.07,18,0A25.08,25.08,0,0,1,148.91,124c.08,3.46,0,6.92,0,10.57h19.19c.1-1,.19-2,.27-2.94.59-7,5.71-12.5,12.8-12.88a229.77,229.77,0,0,1,23.18,0c7.08.34,11.92,5.32,12.94,12.31.16,1.11.29,2.22.46,3.52H231.5v-27.8c0-8.56,1-9.84,9.45-11.87,0-6.61-.33-13.33.1-20,.39-6.05.79-12.32,2.64-18,5.38-16.53,17.93-24.84,34.48-27.71a73.14,73.14,0,0,1,12.29-.89c28-.08,55.9,0,83.84-.12,4.52,0,7.72,1.35,9.7,5.41v35.2c-2.45,4.06-6.11,5.17-10.72,5.12-15.22-.17-30.44,0-45.67,0-11.47,0-22.95,0-34.43.13-1.26,0-3.55,1.21-3.59,1.94-.28,6.41-.16,12.83-.16,19a31.59,31.59,0,0,1,5.2,1.41c3.19,1.56,4.07,4.42,4.05,7.79-.06,10.08,0,20.15,0,30.61h17.86c12.09,0,13.36,1.26,13.36,13.22v25.45h4.41c13.35,0,26.7.13,40-.07,4.52-.08,7.71,1.38,9.66,5.45V264.2c-2.25,4-5.61,5.38-10.21,5.3-13.22-.24-26.45-.09-39.68-.09h-4.23V295.7c0,10.67-1.6,12.25-12.42,12.26h-99.6c-.17,1.07-.3,1.78-.39,2.5-1.16,9.06-6.38,13.69-15.56,13.73-6.61,0-13.23.1-19.84-.05A14,14,0,0,1,168.46,312c-.17-1.21-.2-2.45-.3-3.84H143.33v31.73h5.06q112.49,0,225-.07c4.64,0,8.27,1.09,10.66,5.22ZM168.15,149.77h-4.57q-36.5,0-73,0c-3.73,0-7.48.19-11.2.53C39.07,154,9,194,16.74,233.8,23.63,269.31,52.23,292.8,89,293c25.08.11,50.15,0,75.23,0,1.3,0,2.61-.15,3.92-.23ZM217.51,293h4.41c29.56,0,59.13-.05,88.69.07,3.42,0,4.38-.89,4.37-4.35-.12-44.92-.07-89.84-.08-134.76,0-1.32-.13-2.64-.2-3.91H217.51v4.32c0,10.23,0,20.46,0,30.7a19.78,19.78,0,0,1-.45,4.81,7.32,7.32,0,0,1-14.28-.73,29.11,29.11,0,0,1-.21-4.48q0-23.4,0-46.79c0-1.33-.11-2.66-.17-4.09H183.6V309h18.94v-4.58c0-16,0-31.95,0-47.92,0-5.67,2.7-8.86,7.31-8.92s7.59,3.21,7.63,9.05c.05,9.48,0,19,0,28.45ZM330.2,188.6v65.56h38.54V188.6ZM274.5,95.25c0-7.3-.24-14.27.06-21.21.38-9,6-14.44,15-15,2.11-.13,4.23-.12,6.35-.12l60.58,0h12.39V43.21H357.58c-23.94,0-47.87-.14-71.8.15-15.36.19-26.77,8.3-28.71,21.2-1.5,10-1.1,20.29-1.56,30.69ZM127.82,339.73V308.17H95v31.56ZM283.44,134.6V110.75H246.7V134.6Zm-149.53,0c0-3.91.18-7.39,0-10.85a9.81,9.81,0,0,0-9.5-9.29c-6.72-.2-13.46-.24-20.18,0-4.37.17-7.85,2.68-8.72,6.94s-.54,8.75-.73,13.17Z"/><path class="cls-1" d="M384,345.07c-2.39-4.13-6-5.22-10.66-5.22q-112.47.15-224.95.07h-5.06V308.19h24.83c.1,1.39.13,2.63.3,3.84a14,14,0,0,0,13.61,12.11c6.61.15,13.23.08,19.84.05,9.18,0,14.4-4.67,15.56-13.73.09-.72.22-1.43.39-2.5h99.6c10.82,0,12.42-1.59,12.42-12.26V269.41h4.23c13.23,0,26.46-.15,39.68.09,4.6.08,8-1.31,10.21-5.3Z"/><path class="cls-1" d="M384,178.84c-1.95-4.07-5.14-5.53-9.66-5.45-13.35.2-26.7.07-40,.07h-4.41V148c0-12-1.27-13.22-13.36-13.22H298.66c0-10.46,0-20.53,0-30.61,0-3.37-.86-6.23-4.05-7.79a31.59,31.59,0,0,0-5.2-1.41c0-6.21-.12-12.63.16-19,0-.73,2.33-1.92,3.59-1.94,11.48-.16,23-.12,34.43-.13,15.23,0,30.45-.15,45.67,0,4.61,0,8.27-1.06,10.72-5.12Z"/><path class="cls-1" d="M168.15,149.77v143c-1.31.08-2.62.23-3.92.23-25.08,0-50.15.1-75.23,0-36.77-.16-65.37-23.65-72.26-59.16C9,194,39.07,154,79.4,150.32c3.72-.34,7.47-.52,11.2-.53q36.5-.06,73,0ZM132.1,176.53h-9.7c-4.32.19-7.47,3.1-7.68,7.09a7.43,7.43,0,0,0,7.37,7.79c6.7.21,13.43.22,20.13,0a7.32,7.32,0,0,0,7.12-7.64,7.41,7.41,0,0,0-7.54-7.19C138.57,176.46,135.34,176.55,132.1,176.53Zm0,37.43c-3.23,0-6.47-.09-9.69,0-4.48.14-7.72,3.35-7.69,7.45a7.45,7.45,0,0,0,7.39,7.41c6.58.19,13.18.18,19.76,0a7.41,7.41,0,0,0,7.48-7.68c-.12-4-3.21-7-7.55-7.19C138.56,213.87,135.32,214,132.09,214Zm0,52.39c3.11,0,6.22.08,9.33,0,4.76-.16,8-3.35,7.93-7.64-.08-4.13-3.27-7.2-7.84-7.27q-9.51-.15-19,0c-4.51.08-7.75,3.28-7.77,7.37s3.17,7.33,7.68,7.52C125.61,266.45,128.85,266.34,132.08,266.35Z"/><path class="cls-1" d="M217.51,293v-7.87c0-9.48,0-19,0-28.45,0-5.84-2.87-9.11-7.63-9.05s-7.3,3.25-7.31,8.92c0,16,0,31.94,0,47.92V309H183.6V133.77h18.76c.06,1.43.17,2.76.17,4.09q0,23.38,0,46.79a29.11,29.11,0,0,0,.21,4.48,7.32,7.32,0,0,0,14.28.73,19.78,19.78,0,0,0,.45-4.81c0-10.24,0-20.47,0-30.7V150H314.7c.07,1.27.2,2.59.2,3.91,0,44.92,0,89.84.08,134.76,0,3.46-1,4.37-4.37,4.35-29.56-.12-59.13-.07-88.69-.07Zm-7.27-79a7.24,7.24,0,0,0-7.62,7.05,7.44,7.44,0,0,0,7.3,7.85,7.57,7.57,0,0,0,7.49-7.34A7.35,7.35,0,0,0,210.24,214Z"/><path class="cls-1" d="M330.2,188.6h38.54v65.56H330.2Z"/><path class="cls-1" d="M274.5,95.25h-19c.46-10.4.06-20.69,1.56-30.69,1.94-12.9,13.35-21,28.71-21.2,23.93-.29,47.86-.12,71.8-.15h11.27V58.9H356.46l-60.58,0c-2.12,0-4.24,0-6.35.12-8.95.54-14.59,6-15,15C274.26,81,274.5,88,274.5,95.25Z"/><path class="cls-1" d="M127.82,339.73H95V308.17h32.84Z"/><path class="cls-1" d="M283.44,134.6H246.7V110.75h36.74Z"/><path class="cls-1" d="M133.91,134.64H94.73c.19-4.42-.15-8.92.73-13.17s4.35-6.77,8.72-6.94c6.72-.27,13.46-.23,20.18,0a9.81,9.81,0,0,1,9.5,9.29C134.09,127.25,133.91,130.73,133.91,134.64Z"/><path d="M132.1,176.54c3.24,0,6.47-.08,9.7,0a7.41,7.41,0,0,1,7.54,7.19,7.32,7.32,0,0,1-7.12,7.64c-6.7.24-13.43.23-20.13,0a7.43,7.43,0,0,1-7.37-7.79c.21-4,3.36-6.9,7.68-7.09h9.7Z"/><path d="M132.09,214c3.23,0,6.47-.09,9.7,0,4.34.16,7.43,3.18,7.55,7.19a7.41,7.41,0,0,1-7.48,7.68c-6.58.17-13.18.18-19.76,0a7.45,7.45,0,0,1-7.39-7.41c0-4.1,3.21-7.31,7.69-7.45C125.62,213.87,128.86,214,132.09,214Z"/><path d="M132.08,266.34c-3.23,0-6.47.11-9.69,0-4.51-.19-7.7-3.42-7.68-7.52s3.26-7.29,7.77-7.37q9.49-.16,19,0c4.57.07,7.76,3.14,7.84,7.27.08,4.29-3.17,7.48-7.93,7.64C138.3,266.43,135.19,266.35,132.08,266.34Z"/><path d="M210.24,214a7.35,7.35,0,0,1,7.17,7.56,7.57,7.57,0,0,1-7.49,7.34,7.44,7.44,0,0,1-7.3-7.85A7.24,7.24,0,0,1,210.24,214Z"/></g></svg>