<svg id="humidity" xmlns="http://www.w3.org/2000/svg" viewBox="0 0 384 384"><path d="M181.89,384c-8.33-1.4-16.85-2.1-25-4.3C99.1,364,61.78,327,47.53,268.93c-11.19-45.65-1-87.92,27.71-125.16C110.59,98,146.44,52.56,182.09,7c6.62-8.46,13.45-8.45,20,0q21.1,27.18,42.16,54.41a14.94,14.94,0,0,1,2.6,4.47,7.26,7.26,0,0,1-3.79,8.51,7.57,7.57,0,0,1-9.39-2.25c-3.74-4.66-7.35-9.45-11-14.18L194.28,21.31c-.67-.87-1.41-1.69-2.27-2.7l-33.57,42.9q-36.08,46.13-72.14,92.23C43.07,208.92,51,290.16,104.17,336.05c26.89,23.22,58.19,34.15,93.61,32.84,61.47-2.29,114.54-49.06,124.91-110,6.67-39.25-2.51-74.67-26.67-106.23-8.34-10.9-16.78-21.71-25.17-32.56-2.11-2.73-2.57-5.67-.78-8.7,1.61-2.71,4.14-4.14,7.25-3.51a8.34,8.34,0,0,1,4.76,2.54c12.66,16.82,26.73,32.83,37.44,50.83,50.91,85.47,1.77,197.63-95.36,219-7.51,1.66-15.2,2.51-22.8,3.74Z"/><path d="M226.27,153.29c5.68,0,9.26,4.88,7.53,9.77a22.75,22.75,0,0,1-1.85,3.65q-35.37,61.53-70.79,123a18,18,0,0,1-2.76,3.95,7.09,7.09,0,0,1-9,.75,7.24,7.24,0,0,1-2.94-8.81,21,21,0,0,1,1.52-3q35.64-62,71.29-124C221,155.66,223,153.24,226.27,153.29Z"/><path d="M117.52,176.08a28.8,28.8,0,1,1,28.6,29A28.83,28.83,0,0,1,117.52,176.08Zm28.73,14a13.83,13.83,0,0,0,.26-27.65,13.83,13.83,0,1,0-.26,27.65Z"/><path d="M265.73,266.82a28.8,28.8,0,1,1-28.82-28.75A28.83,28.83,0,0,1,265.73,266.82ZM236.81,253a13.83,13.83,0,1,0,13.95,13.59A14,14,0,0,0,236.81,253Z"/><path d="M265.72,91.33a7.46,7.46,0,1,1-7.25-7.47A7.53,7.53,0,0,1,265.72,91.33Z"/></svg>