<svg xmlns="http://www.w3.org/2000/svg" xmlns:xlink="http://www.w3.org/1999/xlink" viewBox="0 0 384 384">
  <defs>
    <style>
      .cls-1 {
        fill: #040404;
      }

      .cls-2 {
        fill: #98c0f4;
      }

      .cls-3 {
        fill: #040403;
      }

      .cls-4 {
        fill: url(#linear-gradient);
      }

      .cls-5 {
        fill: #545454;
      }

      .cls-6 {
        fill: url(#linear-gradient-2);
      }

      .cls-7 {
        fill: #f5d72d;
      }

      .cls-8 {
        fill: #f7f086;
      }
    </style>
    <linearGradient id="linear-gradient" x1="154" y1="295.81" x2="230" y2="295.81" gradientUnits="userSpaceOnUse">
      <stop offset="0.8" stop-color="#cacaca"/>
      <stop offset="0.8" stop-color="#b2b2b2"/>
      <stop offset="0.8" stop-color="#aaa"/>
      <stop offset="1" stop-color="#aaa"/>
    </linearGradient>
    <linearGradient id="linear-gradient-2" x1="172.07" y1="197.81" x2="211.93" y2="197.81" gradientUnits="userSpaceOnUse">
      <stop offset="0.75" stop-color="#f7f086"/>
      <stop offset="0.75" stop-color="#f6e96e"/>
      <stop offset="0.75" stop-color="#f5d832"/>
      <stop offset="0.75" stop-color="#f5d72d"/>
    </linearGradient>
  </defs>
  <g id="Layer_8" data-name="Layer 8">
    <g id="drops">
      <g id="drop6">
        <path class="cls-1" d="M77.2,150.73c6.39.47,12,3.2,15.27,9.55,4.49,8.66,7.15,18,9.19,27.45.92,4.25-2.39,7.71-6.45,6.74-9.42-2.24-18.81-4.68-27.44-9.25a17.69,17.69,0,0,1-9-20.82A18.64,18.64,0,0,1,77.2,150.73Zm11,30.16a76.43,76.43,0,0,0-5.27-14.8,6.6,6.6,0,0,0-7.28-4,6.81,6.81,0,0,0-6.2,6,6.57,6.57,0,0,0,3.85,7.37A77.63,77.63,0,0,0,88.19,180.89Z"/>
        <path class="cls-2" d="M88.19,180.89a77.63,77.63,0,0,1-14.9-5.37,6.57,6.57,0,0,1-3.85-7.37,6.81,6.81,0,0,1,6.2-6,6.6,6.6,0,0,1,7.28,4A76.43,76.43,0,0,1,88.19,180.89Z"/>
      </g>
      <g id="drop2">
        <path class="cls-1" d="M326,170.55a16.94,16.94,0,0,1-8.87,14.24c-8.89,4.9-18.66,7.41-28.44,9.71a5.27,5.27,0,0,1-6.32-6.24c2.15-10.22,4.8-20.35,10.16-29.43,3.95-6.69,12.55-9.58,20.26-7.33S326,161.16,326,170.55Zm-30.12,10.34a70.07,70.07,0,0,0,15.17-5.5,6.52,6.52,0,0,0,3.58-7.5,6.79,6.79,0,0,0-6.05-5.76,6.59,6.59,0,0,0-7.34,3.87A78.39,78.39,0,0,0,295.85,180.89Z"/>
        <path class="cls-2" d="M295.85,180.89A78.39,78.39,0,0,1,301.21,166a6.59,6.59,0,0,1,7.34-3.87,6.79,6.79,0,0,1,6.05,5.76,6.52,6.52,0,0,1-3.58,7.5A70.07,70.07,0,0,1,295.85,180.89Z"/>
      </g>
      <g id="drop1">
        <path class="cls-1" d="M273.66,170.75A16.8,16.8,0,0,1,264.34,185c-8.72,4.67-18.23,7.11-27.76,9.43a5.21,5.21,0,0,1-6.49-6c2.12-10.6,4.81-21.11,10.66-30.37,3.93-6.22,12.55-8.76,19.9-6.52C268.39,153.92,273.65,161.05,273.66,170.75Zm-30.11,10.06a69.84,69.84,0,0,0,14.46-5c3.32-1.51,4.91-4.2,4.3-7.84a6.68,6.68,0,0,0-5.95-5.83c-3.65-.56-6.21,1.11-7.74,4.44A92.75,92.75,0,0,0,243.55,180.81Z"/>
        <path class="cls-2" d="M243.55,180.81a92.75,92.75,0,0,1,5.07-14.22c1.53-3.33,4.09-5,7.74-4.44a6.68,6.68,0,0,1,5.95,5.83c.61,3.64-1,6.33-4.3,7.84A69.84,69.84,0,0,1,243.55,180.81Z"/>
      </g>
      <g id="drop4">
        <path class="cls-1" d="M326,223.11a16.87,16.87,0,0,1-9.34,14.32c-8.73,4.67-18.24,7.11-27.76,9.42a5.21,5.21,0,0,1-6.47-6c2.13-10.6,4.81-21.12,10.68-30.37,4-6.33,12.8-8.82,20.24-6.36C321,206.6,326,213.53,326,223.11Zm-30,10.1a60.74,60.74,0,0,0,15.57-5.74c2.82-1.57,3.7-4.35,3.06-7.39a6.74,6.74,0,0,0-5.83-5.55,6.44,6.44,0,0,0-7.24,3.38A65.58,65.58,0,0,0,296,233.21Z"/>
        <path class="cls-2" d="M296,233.21a65.58,65.58,0,0,1,5.56-15.3,6.44,6.44,0,0,1,7.24-3.38,6.74,6.74,0,0,1,5.83,5.55c.64,3-.24,5.82-3.06,7.39A60.74,60.74,0,0,1,296,233.21Z"/>
      </g>
      <g id="drop8">
        <path class="cls-1" d="M58,223.33c0-10.09,5.67-17.48,13.46-19.56a17.9,17.9,0,0,1,20.9,9c4.49,8.51,7.06,17.74,9.11,27.08,1,4.71-2.36,8-6.86,7a140.26,140.26,0,0,1-25.09-8.14C62.18,235.28,58.22,229.64,58,223.33Zm30.11,9.91a81,81,0,0,0-5.37-14.85,6.59,6.59,0,0,0-7.34-3.89,6.71,6.71,0,0,0-6,5.76,6.62,6.62,0,0,0,3.88,7.7A75.91,75.91,0,0,0,88.15,233.24Z"/>
        <path class="cls-2" d="M88.15,233.24A75.91,75.91,0,0,1,73.29,228a6.62,6.62,0,0,1-3.88-7.7,6.71,6.71,0,0,1,6-5.76,6.59,6.59,0,0,1,7.34,3.89A81,81,0,0,1,88.15,233.24Z"/>
      </g>
      <g id="drop5">
        <path class="cls-1" d="M110.42,170.92c0-10.14,5.73-17.58,13.72-19.57,8.35-2.08,16.58,1.35,20.59,8.91,4.51,8.5,7.08,17.73,9.14,27.07,1.13,5.07-2.34,8.08-7.45,6.87A135.65,135.65,0,0,1,122,186.29C114.65,183,110.61,177.39,110.42,170.92Zm30.05,10a81.61,81.61,0,0,0-5.08-14.41c-1.48-3.2-4-4.79-7.44-4.35a6.7,6.7,0,0,0-6.2,6c-.55,3.66,1.13,6.25,4.45,7.75A85.5,85.5,0,0,0,140.47,180.87Z"/>
        <path class="cls-2" d="M140.47,180.87a85.5,85.5,0,0,1-14.27-5c-3.32-1.5-5-4.09-4.45-7.75a6.7,6.7,0,0,1,6.2-6c3.45-.44,6,1.15,7.44,4.35A81.61,81.61,0,0,1,140.47,180.87Z"/>
      </g>
      <g id="drop7">
        <path class="cls-3" d="M134.69,207.26c5.3.2,10.77,3,14.13,9.35,4.64,8.74,7.13,18.23,9.38,27.77a5.19,5.19,0,0,1-6.09,6.42c-10.58-2.17-21.11-4.85-30.35-10.71-6.23-3.94-8.73-12.59-6.44-19.92C117.74,212.41,124.81,207.25,134.69,207.26ZM143.77,237l.86-.09-.41-.42c-.77-4.71-2.63-9.05-4.56-13.34-1.7-3.76-4.36-5.24-8-4.58a6.65,6.65,0,0,0-5.76,6c-.52,3.67,1.21,6.19,4.56,7.69A77.6,77.6,0,0,0,143.77,237Z"/>
        <path class="cls-2" d="M143.77,237a77.6,77.6,0,0,1-13.33-4.71c-3.35-1.5-5.08-4-4.56-7.69a6.65,6.65,0,0,1,5.76-6c3.66-.66,6.32.82,8,4.58,1.93,4.29,3.79,8.63,4.56,13.34A3.1,3.1,0,0,0,143.77,237Z"/>
      </g>
      <g id="drop3">
        <path class="cls-3" d="M249.19,207.27c10.25-.07,17.63,5.45,19.77,13.47a18,18,0,0,1-9,20.89c-8.52,4.48-17.77,7-27.09,9.11-4.49,1-8-2.31-7-6.58,2.16-9.18,4.65-18.29,8.9-26.78C238.11,210.77,243.58,207.48,249.19,207.27Zm-9.79,30.18c5.49-1.67,10.56-3.16,15.25-5.67a6.47,6.47,0,0,0,3.48-7.52,6.56,6.56,0,0,0-5.66-5.64c-3.24-.54-5.95.45-7.52,3.51A75.34,75.34,0,0,0,239.4,237.45Z"/>
        <path class="cls-2" d="M239.4,237.45A75.34,75.34,0,0,1,245,222.13c1.57-3.06,4.28-4,7.52-3.51a6.56,6.56,0,0,1,5.66,5.64,6.47,6.47,0,0,1-3.48,7.52C250,234.29,244.89,235.78,239.4,237.45Z"/>
      </g>
    </g>
    <g>
      <g>
        <path d="M216,273.81l-6,12H174l-6-12a6,6,0,0,0,6-6h36A6,6,0,0,0,216,273.81Z"/>
        <g>
          <path class="cls-4" d="M162,311.81a8,8,0,0,1-8-8v-16a8,8,0,0,1,8-8h60a8,8,0,0,1,8,8v16a8,8,0,0,1-8,8Z"/>
          <path d="M222,285.81a2,2,0,0,1,1.41.59,2,2,0,0,1,.59,1.41v16a2,2,0,0,1-2,2H162a2,2,0,0,1-2-2v-16a2,2,0,0,1,.59-1.41,2,2,0,0,1,1.41-.59h60m0-12H162a14,14,0,0,0-14,14v16a14,14,0,0,0,14,14h60a14,14,0,0,0,14-14v-16a14,14,0,0,0-14-14Z"/>
        </g>
        <g>
          <path class="cls-5" d="M188,279.81a8,8,0,0,1-8-8v-22a8,8,0,0,1,8-8H196a8,8,0,0,1,8,8v22a8,8,0,0,1-8,8Z"/>
          <path d="M196,247.81a2,2,0,0,1,2,2v22a2,2,0,0,1-2,2H188a2,2,0,0,1-2-2v-22a2,2,0,0,1,2-2H196m0-12H188a14,14,0,0,0-14,14v22a14,14,0,0,0,14,14H196a14,14,0,0,0,14-14v-22a14,14,0,0,0-14-14Z"/>
        </g>
      </g>
      <g>
        <g>
          <path class="cls-6" d="M179.87,220.74a7.8,7.8,0,0,1-7.8-7.8V194.81a19.93,19.93,0,0,1,39.86,0v18.13a7.8,7.8,0,0,1-7.8,7.8Z"/>
          <path d="M192,180.81a14,14,0,0,1,14,14v18.13a1.87,1.87,0,0,1-1.87,1.87H179.87a1.87,1.87,0,0,1-1.87-1.87V194.81a14,14,0,0,1,14-14h0M192,169a25.9,25.9,0,0,0-25.87,25.86v18.13a13.75,13.75,0,0,0,13.74,13.74h24.26a13.74,13.74,0,0,0,13.73-13.74V194.81A25.89,25.89,0,0,0,192,169Z"/>
        </g>
        <path id="darkyellow" class="cls-7" d="M192,180.81h0a14,14,0,0,1,14,14v18.13a1.87,1.87,0,0,1-1.87,1.87H179.87a1.87,1.87,0,0,1-1.87-1.87V194.81a14,14,0,0,1,14-14Z"/>
        <path id="light-yellow" class="cls-8" d="M190.51,180.81h3A12.51,12.51,0,0,1,206,193.32v19.83a1.67,1.67,0,0,1-1.67,1.67H179.67a1.67,1.67,0,0,1-1.67-1.67V193.32A12.51,12.51,0,0,1,190.51,180.81Z"/>
      </g>
      <g>
        <rect x="186" y="223.81" width="12" height="12"/>
        <path d="M201,236.71l-3,11.1H186l-3-11.1a3.88,3.88,0,0,0,3-3.9h12a3.88,3.88,0,0,0,3,3.9l-3,11.1H186l-3-11.1"/>
        <path d="M201,225.91l-3-11.1H186l-3,11.9c3.29,1.11,3,3.1,3,3.1h12s-.29-2,3-3.1l-3-11.9H186l-3,11.1"/>
      </g>
    </g>
  </g>
</svg>
