<?xml version="1.0" encoding="utf-8"?>
<!-- Svg Vector Icons : http://www.onlinewebfonts.com/icon -->
<!DOCTYPE svg PUBLIC "-//W3C//DTD SVG 1.1//EN" "http://www.w3.org/Graphics/SVG/1.1/DTD/svg11.dtd">
<svg version="1.1" xmlns="http://www.w3.org/2000/svg" xmlns:xlink="http://www.w3.org/1999/xlink" x="0px" y="0px" viewBox="0 0 1000 1000" enable-background="new 0 0 1000 1000" xml:space="preserve">
<metadata> Svg Vector Icons : http://www.onlinewebfonts.com/icon </metadata>
<g><path d="M984.1,18.7c-4.7-5.5-11.5-8.7-18.7-8.7h-25c-246.9-0.1-442-0.1-585.6,34.2c-77.2,18.5-136.8,46.4-182.4,85.2c-49.2,41.9-82.7,96.9-102.6,168C56.6,344.7,50.5,430,76.5,514.8c9.6,31.4,24.6,61,44.6,88.1C61.5,696.3,10,819.2,10,965.5C10,979,21,990,34.5,990C48,990,59,979,59,965.5c0-225.6,133.7-393,213.3-472.6c57.2-57.2,121.8-105.4,187-139.5c60.7-31.8,118.6-49.2,163.2-49.2c13.5,0,24.5-11,24.5-24.5c0-13.5-11-24.5-24.5-24.5c-53.1,0-117.4,19-185.9,54.9c-69.5,36.4-138.3,87.7-198.9,148.3c-25.6,25.6-56.3,59.7-86.9,101.4c-11.9-18.7-21.1-38.5-27.4-59.1c-24.5-80-15.5-157-6.3-189.9C187.2,59.6,453.3,59,936.2,59.1C878.6,367.2,771.3,566.6,616.9,652c-143.2,79.2-285.2,36-339.6,13.7c-11.5-4.7-23-10.5-34.2-17.1c-11.6-6.9-26.7-3.1-33.6,8.5s-3.1,26.7,8.5,33.6c13.3,7.9,27,14.8,40.8,20.4c30.5,12.4,79.6,28.4,140.4,33.7c13.4,1.2,26.7,1.7,39.9,1.7c72,0,139.6-17.3,201.6-51.6c78.8-43.6,147-114.6,202.8-210.9C908.8,371.1,958,221.3,989.6,38.8c1.2-7.1-0.7-14.4-5.4-19.9L984.1,18.7z"/></g>
</svg>